<?xml version="1.0" standalone="no"?>
<!DOCTYPE svg PUBLIC "-//W3C//DTD SVG 20010904//EN"
 "http://www.w3.org/TR/2001/REC-SVG-20010904/DTD/svg10.dtd">
<svg version="1.0" xmlns="http://www.w3.org/2000/svg"
 width="1033.000000pt" height="1008.000000pt" viewBox="0 0 1033.000000 1008.000000"
 preserveAspectRatio="xMidYMid meet">

<g transform="translate(0.000000,1008.000000) scale(0.100000,-0.100000)"
fill="#000000" stroke="none">
<path d="M4120 9750 c-25 -3 -52 -10 -60 -15 -7 -5 -32 -8 -53 -6 -21 1 -44
-2 -50 -7 -7 -5 -24 -12 -38 -16 -15 -3 -51 -24 -80 -46 -29 -22 -56 -40 -59
-40 -3 0 -6 -35 -5 -77 0 -71 -2 -78 -20 -81 -31 -4 -55 54 -38 94 6 16 12 35
13 42 0 19 -45 14 -65 -8 -10 -11 -13 -20 -8 -20 23 0 21 -29 -2 -44 -42 -27
-50 -24 -50 19 l0 40 -47 3 c-37 2 -56 -3 -96 -28 -28 -17 -70 -34 -94 -38
-39 -7 -43 -10 -43 -36 -1 -31 -35 -66 -66 -66 -10 0 -19 -4 -19 -10 0 -5 -7
-10 -15 -10 -8 0 -39 -19 -70 -42 l-56 -41 7 -44 c5 -35 3 -48 -12 -64 -23
-25 -67 -45 -119 -54 -22 -3 -63 -18 -92 -33 -28 -14 -54 -24 -57 -21 -4 3 8
34 26 69 34 65 67 90 122 90 14 0 33 10 44 25 11 13 32 30 48 36 16 7 40 23
54 36 14 12 46 33 70 45 77 40 100 59 100 83 0 30 -22 37 -57 20 -15 -7 -73
-33 -128 -58 -179 -80 -524 -281 -668 -388 -51 -38 -64 -54 -60 -69 3 -11 0
-20 -6 -20 -6 0 -11 5 -11 10 0 17 -20 11 -58 -17 -62 -45 -92 -76 -92 -94 0
-19 12 -25 82 -35 57 -8 55 -19 -6 -28 -30 -5 -61 -2 -95 10 -51 16 -51 16
-90 -9 -68 -45 -111 -97 -80 -97 7 0 9 -13 4 -37 l-6 -38 145 0 c167 1 173 4
217 96 23 49 23 52 5 65 -10 7 -23 15 -29 17 -17 5 3 27 25 27 12 0 30 -7 39
-16 17 -15 21 -15 46 1 46 29 83 68 83 87 0 9 9 22 21 28 11 7 28 18 37 26 71
61 96 76 130 81 38 5 38 4 51 -37 12 -42 12 -43 -20 -72 -31 -28 -32 -31 -25
-90 3 -33 8 -64 12 -69 3 -5 41 -9 84 -9 94 0 106 -4 125 -40 28 -55 0 -269
-51 -383 -40 -88 -42 -130 -6 -135 23 -4 48 -37 34 -46 -4 -2 -14 -1 -22 5
-22 13 -68 11 -77 -3 -32 -51 -42 -138 -18 -158 20 -16 45 -6 45 19 0 20 36
48 47 37 4 -3 1 -24 -6 -45 -9 -33 -22 -46 -71 -76 -33 -20 -69 -50 -81 -67
-48 -67 -60 -216 -38 -461 12 -132 23 -163 66 -173 15 -4 42 -22 59 -41 50
-53 96 -42 128 32 47 104 81 164 111 190 7 6 26 47 44 92 18 45 40 88 50 96 9
8 56 22 104 32 106 21 134 39 206 128 62 76 81 87 219 123 51 13 110 33 130
44 52 27 147 128 161 172 18 55 8 146 -18 165 -25 17 -30 73 -6 73 9 0 15 -9
15 -25 0 -39 27 -30 50 18 29 60 62 105 82 112 10 4 23 25 30 48 6 23 16 49
22 58 7 10 9 47 6 95 -5 74 -4 81 20 107 17 20 25 41 26 72 1 23 14 69 29 101
15 32 30 76 33 98 3 22 19 58 36 81 17 23 38 52 46 65 21 32 119 150 147 177
30 29 29 46 -5 85 -23 25 -36 31 -65 30 -42 -2 -84 -21 -111 -51 -30 -33 -85
-64 -102 -57 -13 5 -14 9 -4 21 7 8 18 15 25 15 8 0 21 14 29 32 26 50 7 59
-132 60 -34 0 -60 3 -57 7 11 10 136 29 196 30 43 1 60 6 74 21 18 20 18 21
-11 51 -16 17 -44 38 -62 46 -28 11 -33 18 -28 36 3 12 1 29 -4 36 -12 21 -87
37 -140 31z m-220 -1641 c0 -21 -7 -23 -29 -10 -12 8 -12 12 -2 25 16 19 31
12 31 -15z"/>
<path d="M6249 9568 c0 -7 -2 -35 -4 -62 -2 -36 -8 -53 -24 -65 -21 -16 -21
-16 -1 -29 25 -15 26 -60 3 -78 -16 -11 -16 -14 -3 -28 27 -26 52 -23 70 9 16
27 16 32 3 47 -9 10 -13 24 -10 33 7 17 52 21 62 5 10 -17 25 -11 25 9 0 10
-7 21 -15 25 -8 3 -15 14 -15 24 0 16 7 19 41 19 25 0 39 -4 36 -11 -2 -6 -12
-36 -22 -66 -10 -30 -21 -60 -26 -66 -5 -6 4 -10 26 -11 24 -1 36 4 39 15 8
28 10 118 2 130 -3 6 2 16 14 22 26 14 27 50 1 50 -11 0 -23 5 -26 10 -15 25
-73 -4 -88 -43 -11 -28 -29 -15 -42 29 -10 37 -44 61 -46 32z"/>
<path d="M7104 9555 c-10 -25 5 -63 26 -70 11 -4 27 -19 35 -35 9 -18 26 -31
46 -35 37 -8 94 -33 130 -58 34 -23 130 -47 157 -40 12 3 22 1 22 -3 0 -5 15
-26 33 -48 l32 -38 38 22 c20 12 35 26 32 31 -3 4 -25 18 -48 29 -67 33 -101
52 -115 66 -11 12 -368 194 -379 194 -2 0 -6 -7 -9 -15z"/>
<path d="M6095 9410 c-4 -6 -21 -8 -38 -5 -40 7 -60 -6 -55 -35 2 -18 13 -26
48 -35 25 -7 59 -18 76 -25 28 -12 33 -11 53 9 20 20 21 25 9 52 -9 19 -20 29
-35 29 -12 0 -25 5 -28 10 -8 13 -22 13 -30 0z"/>
<path d="M5340 9260 c-6 -11 -17 -20 -24 -20 -8 0 -20 -7 -27 -16 -18 -22 -57
-36 -106 -39 -23 -1 -49 -8 -58 -15 -18 -15 -19 -57 -1 -89 9 -17 11 -34 5
-54 -10 -36 -5 -47 24 -47 13 0 33 -7 45 -16 18 -13 22 -25 22 -73 0 -47 5
-63 26 -89 30 -36 50 -39 79 -14 31 28 45 58 45 101 0 22 7 72 15 111 l15 72
-25 30 c-42 50 -27 64 33 28 17 -11 42 -19 55 -19 12 0 32 -2 43 -6 18 -6 25
0 42 37 46 98 39 113 -50 111 -38 -2 -74 4 -92 12 -39 20 -53 19 -66 -5z"/>
<path d="M7706 9188 c2 -106 2 -105 34 -118 34 -14 37 -28 15 -70 -15 -30 -48
-40 -60 -20 -9 15 -43 12 -57 -6 -7 -9 -27 -31 -44 -49 -78 -83 -98 -165 -48
-204 14 -11 34 -23 45 -26 22 -7 26 -35 4 -35 -8 0 -39 -11 -70 -24 -41 -19
-55 -30 -55 -45 0 -12 5 -21 10 -21 19 0 10 -22 -10 -27 -25 -7 -21 -28 6 -28
10 -1 30 -8 44 -17 14 -8 36 -18 50 -21 32 -8 98 -62 87 -73 -4 -4 -21 0 -37
10 -16 9 -55 26 -86 36 -31 11 -62 24 -68 29 -8 7 -26 5 -51 -4 -28 -10 -33
-14 -17 -15 12 0 30 -8 40 -18 10 -10 26 -21 35 -25 25 -9 22 -47 -3 -47 -11
0 -20 7 -20 15 0 8 -7 15 -15 15 -8 0 -15 -7 -15 -15 0 -8 -4 -15 -10 -15 -5
0 -10 14 -10 30 0 38 -26 40 -33 3 -5 -29 13 -86 32 -97 16 -10 51 -81 51
-103 0 -10 16 -36 34 -58 39 -44 33 -69 -8 -41 -16 10 -26 26 -26 40 0 12 -9
31 -20 41 -11 10 -20 25 -20 34 0 9 -17 37 -38 63 -26 31 -44 68 -56 112 -14
52 -22 66 -37 66 -10 0 -19 5 -19 10 0 15 -72 56 -90 51 -23 -5 -22 -3 -27
-113 -5 -127 2 -170 25 -166 12 2 22 -12 37 -57 20 -59 58 -98 123 -125 21 -9
32 -40 13 -40 -5 0 -56 22 -113 48 -56 27 -132 57 -168 66 -36 10 -75 24 -87
32 -12 8 -29 14 -37 14 -27 0 -136 80 -161 119 -48 72 -54 250 -11 321 11 19
29 52 38 73 10 21 33 57 52 80 18 23 43 57 54 76 l20 34 -20 41 c-32 67 -34
70 -46 74 -7 2 -26 -25 -43 -61 -26 -57 -34 -66 -63 -71 -19 -4 -46 -16 -60
-27 -28 -22 -66 -99 -66 -132 0 -11 -10 -31 -21 -43 -16 -17 -20 -30 -15 -49
4 -14 10 -24 14 -21 4 2 8 -12 9 -32 1 -22 -1 -31 -6 -23 -18 29 -22 -11 -6
-54 12 -29 15 -56 11 -77 -20 -96 -19 -110 5 -130 38 -29 207 -108 233 -108
13 0 29 -7 36 -15 7 -8 24 -15 39 -15 18 0 42 -15 74 -45 71 -66 65 -76 -48
-78 -63 -1 -77 1 -90 18 -15 20 -15 20 -38 -7 -17 -21 -34 -29 -72 -34 -89
-10 -95 -12 -95 -39 0 -14 -5 -45 -12 -69 -12 -47 -37 -66 -83 -66 -14 0 -25
-4 -25 -10 0 -5 -6 -10 -14 -10 -8 0 -16 -7 -19 -14 -3 -8 -22 -18 -42 -22
-20 -3 -39 -13 -42 -20 -3 -8 -9 -14 -13 -14 -12 0 -19 53 -9 72 15 28 -14 74
-51 81 -17 4 -45 22 -63 41 -42 45 -131 93 -187 102 -25 3 -64 17 -88 31 -33
19 -50 22 -78 17 -35 -6 -36 -6 -25 15 15 28 10 34 -43 59 -29 14 -68 22 -114
24 l-69 2 -59 -53 c-63 -57 -123 -90 -164 -91 -34 0 -52 -13 -56 -41 -9 -57
-18 -84 -30 -92 -7 -4 -15 -20 -19 -37 -3 -16 -19 -45 -35 -65 -16 -20 -31
-55 -35 -78 -4 -23 -11 -46 -15 -52 -4 -5 -13 -26 -19 -45 -15 -48 -42 -83
-125 -160 -173 -161 -164 -150 -164 -205 0 -28 6 -60 14 -72 9 -14 13 -47 11
-97 -2 -89 7 -103 76 -112 46 -7 47 -6 103 50 30 32 61 55 67 53 6 -2 19 -32
28 -68 18 -71 45 -129 60 -129 5 0 9 -8 9 -19 0 -22 26 -29 88 -23 34 3 45 9
52 27 5 13 18 26 29 30 22 7 74 85 84 127 11 43 -21 24 -43 -26 -14 -33 -19
-38 -25 -23 -13 32 4 85 35 107 27 19 30 27 30 79 0 61 -13 87 -45 93 -10 2
-26 15 -34 30 -14 24 -13 30 9 75 13 26 26 50 29 53 4 3 15 19 26 35 10 17 29
38 42 48 14 11 23 29 23 45 0 46 20 101 40 112 28 15 80 12 86 -5 13 -34 -6
-68 -88 -152 -29 -31 -31 -38 -30 -100 1 -126 11 -171 45 -199 25 -21 37 -25
66 -19 20 3 81 9 137 11 80 5 103 3 112 -9 10 -12 7 -18 -14 -32 -21 -14 -31
-15 -51 -6 -13 6 -35 11 -48 11 -32 0 -82 -44 -90 -80 -5 -22 -12 -30 -28 -30
-71 -1 -89 -37 -27 -53 29 -7 37 -6 51 12 16 19 17 19 33 2 9 -10 16 -26 16
-35 0 -15 -6 -17 -27 -13 -15 3 -36 1 -47 -5 -13 -7 -25 -6 -42 2 -12 7 -30
10 -39 7 -14 -6 -14 -10 -1 -36 19 -36 13 -42 -35 -35 -37 6 -38 6 -45 -31 -4
-21 -2 -47 5 -61 15 -34 -10 -43 -45 -15 l-27 22 -26 -24 c-45 -40 -99 -77
-114 -77 -8 0 -17 9 -20 20 -7 28 -34 36 -56 16 -10 -9 -24 -16 -32 -16 -8 0
-20 -5 -27 -12 -6 -6 -15 -8 -19 -4 -4 4 5 17 21 29 28 22 60 93 50 109 -11
18 -24 6 -24 -22 0 -25 -6 -33 -36 -47 -25 -13 -34 -22 -31 -35 5 -19 -8 -25
-18 -8 -4 6 -2 17 5 25 9 10 9 19 0 35 -9 17 -8 32 6 70 14 40 15 54 6 74
l-12 26 -32 -18 c-18 -10 -41 -33 -51 -49 -16 -28 -17 -39 -6 -97 12 -74 1
-108 -43 -122 -13 -4 -37 -17 -54 -30 -17 -13 -37 -24 -45 -24 -18 0 -99 -81
-99 -99 0 -45 -110 -161 -153 -161 -8 0 -31 -7 -50 -15 -20 -8 -46 -15 -58
-15 -28 0 -79 -37 -79 -57 0 -9 32 -46 71 -82 l71 -66 0 -66 c0 -75 -11 -105
-44 -111 -13 -2 -74 -1 -136 3 -113 8 -158 1 -174 -24 -4 -7 -8 -53 -8 -103 0
-58 -5 -105 -15 -127 -21 -50 -19 -73 10 -134 19 -43 29 -53 49 -53 14 0 37
-5 51 -10 26 -10 26 -11 20 -78 -7 -73 -19 -89 -113 -156 -43 -30 -52 -54 -52
-133 0 -60 -46 -122 -134 -183 -36 -25 -68 -54 -72 -65 -4 -11 -19 -38 -34
-60 -65 -96 -150 -246 -150 -265 0 -11 9 -49 21 -83 23 -69 21 -122 -10 -223
-11 -35 -15 -63 -10 -70 5 -6 6 -40 2 -76 -5 -63 -5 -67 23 -89 16 -13 51 -45
78 -72 28 -26 53 -47 57 -47 5 0 18 -27 30 -61 25 -69 47 -94 144 -164 163
-119 166 -120 234 -84 33 17 53 20 113 16 40 -3 88 -8 107 -12 26 -6 45 -3 75
13 74 36 155 64 192 65 30 1 42 -5 65 -33 79 -97 95 -104 179 -80 31 9 37 8
53 -11 24 -29 22 -120 -3 -194 -11 -32 -20 -68 -20 -80 0 -30 41 -89 105 -150
38 -37 54 -62 63 -95 6 -25 20 -63 32 -85 11 -21 20 -54 20 -73 0 -19 8 -62
17 -96 l16 -63 -26 -34 c-44 -58 -87 -182 -87 -249 0 -57 18 -107 81 -223 19
-36 49 -184 49 -247 0 -62 2 -67 47 -125 41 -51 49 -69 55 -120 18 -159 27
-208 42 -223 14 -14 27 -14 144 1 70 9 141 17 158 17 60 0 142 60 244 180 30
35 63 73 73 85 35 38 70 107 83 162 14 59 28 83 51 83 8 0 26 6 42 14 39 21
55 77 48 165 l-6 70 55 50 c31 27 88 70 127 97 129 86 147 119 147 270 0 85
-4 111 -20 142 -18 33 -20 48 -14 142 7 103 8 106 50 170 53 79 182 213 287
297 119 96 186 178 249 306 67 134 115 277 94 277 -2 0 -32 -9 -67 -20 -140
-45 -288 -65 -303 -41 -3 4 -19 11 -36 14 -25 6 -30 11 -30 37 0 26 3 30 28
30 70 0 337 95 383 136 8 8 21 14 27 14 6 0 17 8 24 18 7 10 49 38 93 61 78
42 149 107 185 171 8 14 36 56 63 92 26 36 47 75 47 87 0 30 -55 78 -115 100
-48 18 -50 21 -47 53 2 18 6 35 8 37 2 2 25 -2 51 -8 28 -7 123 -13 230 -13
l183 -1 25 -33 c15 -19 43 -50 63 -70 22 -21 45 -58 57 -91 26 -73 39 -80 111
-65 32 6 59 10 60 9 2 -2 10 -54 18 -117 14 -114 28 -167 52 -205 7 -11 25
-54 39 -95 15 -41 35 -94 46 -117 10 -24 19 -48 19 -55 0 -7 8 -35 18 -63 22
-60 39 -61 94 -7 51 48 66 36 50 -43 -12 -56 -5 -96 18 -110 18 -11 80 27 87
53 7 27 -30 128 -58 158 -17 18 -18 27 -9 95 6 41 14 104 17 141 5 62 8 69 42
95 19 15 84 78 143 138 79 80 111 120 119 148 5 20 12 37 15 37 30 0 163 35
176 47 22 19 38 9 38 -25 0 -29 34 -92 49 -92 5 0 24 -19 43 -42 30 -38 33
-48 34 -113 l1 -70 33 3 c18 1 48 12 66 23 l33 20 11 -21 c6 -11 18 -75 27
-142 13 -97 14 -129 5 -165 -17 -63 -15 -84 14 -139 32 -61 57 -141 49 -155
-4 -5 3 -25 14 -44 11 -19 23 -50 27 -70 l6 -35 -34 32 c-97 95 -162 149 -184
154 -35 9 -98 -17 -102 -42 -2 -15 7 -24 35 -37 50 -23 84 -68 95 -125 8 -42
6 -49 -14 -65 -22 -19 -22 -19 -3 -33 11 -8 30 -12 42 -9 31 7 57 -43 48 -91
-5 -28 -2 -35 12 -40 10 -3 26 -10 35 -15 10 -5 21 -9 26 -9 13 0 39 61 67
157 14 48 29 91 35 97 5 5 10 20 10 33 0 12 6 40 14 60 8 21 17 50 20 66 6 25
4 27 -17 22 -19 -5 -26 1 -44 32 -34 61 -63 158 -63 212 0 27 -4 53 -10 56 -5
3 -10 19 -10 35 0 22 7 32 32 44 17 9 34 16 37 16 3 0 35 -27 70 -60 47 -45
67 -58 76 -50 29 24 79 376 97 675 22 372 12 833 -23 1060 -112 724 -330 1321
-692 1893 -40 62 -85 134 -101 160 -16 26 -59 85 -95 132 -35 47 -91 120 -124
162 -181 236 -456 507 -849 836 -54 45 -382 272 -393 272 -2 0 -21 11 -41 25
-55 37 -60 34 -58 -37z m302 -356 c5 -17 -27 -27 -41 -13 -9 9 -8 14 3 21 18
11 32 8 38 -8z m263 -12 c27 0 33 -18 18 -64 -23 -75 -43 -83 -45 -18 0 20 -4
53 -9 72 -6 29 -5 33 6 23 7 -7 21 -13 30 -13z m-531 -486 c6 -14 10 -27 10
-30 0 -7 -30 -4 -30 4 0 4 -3 17 -6 30 -9 31 14 28 26 -4z m-140 -241 c0 -4
-10 -17 -22 -30 -22 -24 -22 -24 -4 -58 33 -60 24 -159 -15 -183 -25 -16 -37
-9 -20 12 7 8 16 38 21 68 7 45 5 59 -12 93 -23 43 -25 84 -5 97 15 10 57 11
57 1z m-1379 -374 c48 -21 55 -21 154 -7 16 2 21 -4 23 -30 2 -19 -3 -41 -11
-50 -8 -10 -17 -25 -21 -36 -5 -16 -13 -17 -51 -12 -43 7 -45 6 -45 -19 0 -25
-1 -25 -29 -10 -43 22 -61 43 -61 73 -1 15 -7 44 -14 64 -20 55 -15 57 55 27z
m64 -379 c14 -26 14 -30 1 -30 -15 0 -36 29 -36 49 0 21 20 10 35 -19z m-152
-47 c24 -28 26 -83 4 -83 -21 0 -44 31 -52 68 -6 27 -4 32 13 32 10 0 26 -8
35 -17z m2782 -95 c149 -43 286 -141 379 -272 156 -219 168 -514 33 -799 -80
-168 -165 -294 -381 -557 -61 -74 -128 -156 -149 -182 -20 -26 -46 -50 -57
-53 -39 -12 -34 -17 -335 355 -174 215 -282 400 -340 580 -23 71 -29 108 -33
221 -4 117 -1 146 17 214 35 127 83 208 186 311 94 94 169 142 285 180 113 37
272 38 395 2z m639 -264 c11 -30 6 -125 -10 -175 -20 -59 -35 -74 -23 -21 5
20 9 76 9 125 0 81 9 109 24 71z m-3824 -98 c0 -16 -51 -29 -64 -16 -14 14 4
30 35 30 18 0 29 -5 29 -14z m3770 -160 c0 -3 -4 -8 -10 -11 -5 -3 -10 -1 -10
4 0 6 5 11 10 11 6 0 10 -2 10 -4z m-2910 -485 c0 -11 -4 -30 -9 -43 -24 -65
13 -119 137 -202 74 -50 92 -80 70 -116 -25 -40 -84 -37 -148 6 -20 13 -58 27
-85 30 -28 4 -60 13 -72 20 -13 8 -23 10 -23 5 0 -9 -86 -29 -165 -38 -26 -3
-51 -15 -72 -35 l-32 -31 -35 39 c-21 23 -36 49 -36 64 0 22 28 90 65 160 8
14 23 44 34 68 22 47 42 53 91 27 35 -18 53 -49 54 -90 1 -26 5 -30 34 -33 18
-2 48 5 70 16 20 11 45 23 55 26 9 3 17 10 17 16 0 17 -29 23 -55 12 -18 -8
-26 -8 -35 3 -20 24 -7 47 35 62 22 7 49 22 60 33 25 25 45 26 45 1z m673 4
c20 -8 38 -19 42 -25 11 -17 -13 -47 -60 -74 -28 -17 -45 -34 -45 -46 0 -42
40 -110 82 -140 38 -28 44 -37 50 -82 4 -32 27 -91 62 -161 31 -60 56 -117 56
-126 0 -26 -33 -41 -71 -31 -72 17 -155 56 -163 76 -11 27 -6 88 9 114 22 39
19 98 -9 134 -12 17 -31 46 -40 63 -9 18 -36 53 -61 79 -60 61 -70 98 -37 142
13 17 30 32 36 32 7 0 28 14 46 30 38 34 53 36 103 15z m407 -81 c0 -39 -18
-64 -45 -64 -21 0 -25 5 -25 29 0 47 10 61 41 61 24 0 29 -4 29 -26z m-2221
-97 c34 -35 65 -68 69 -74 4 -6 39 -28 77 -49 102 -55 105 -58 105 -124 0 -48
8 -72 50 -157 53 -106 60 -116 101 -132 28 -10 46 2 110 81 l30 37 -47 51
c-26 28 -44 53 -40 57 3 4 42 19 87 33 44 15 87 34 96 43 12 12 22 13 44 5 16
-5 29 -16 29 -24 0 -21 -29 -29 -53 -15 -31 20 -40 0 -45 -97 -4 -82 -3 -90
21 -118 14 -16 47 -42 74 -56 45 -25 53 -26 123 -18 67 8 78 7 102 -11 37 -26
70 -24 96 6 25 28 67 33 76 9 11 -29 6 -142 -8 -171 -7 -15 -24 -50 -37 -78
l-24 -50 -100 -6 c-55 -4 -123 -10 -150 -14 -40 -6 -60 -3 -95 12 -83 37 -105
45 -175 69 -85 29 -156 31 -177 7 -9 -10 -18 -44 -20 -76 -3 -32 -10 -63 -16
-69 -13 -13 -87 21 -203 94 -42 26 -85 48 -96 48 -35 0 -110 30 -132 54 -16
17 -22 38 -25 92 -2 38 -7 88 -11 112 -7 39 -10 42 -40 42 -18 0 -45 -4 -61
-10 -16 -5 -106 -16 -201 -24 -137 -12 -180 -19 -215 -37 -23 -12 -45 -25 -48
-29 -12 -16 -70 -24 -162 -22 l-67 2 6 33 c8 42 17 47 88 47 81 0 124 23 152
80 12 25 22 54 23 65 1 59 22 96 69 126 50 30 65 54 77 122 3 20 11 37 18 38
6 0 41 0 78 -1 67 -1 111 13 137 44 18 22 70 21 78 -1 4 -10 19 -33 35 -51 15
-18 28 -37 28 -41 0 -8 58 -48 125 -86 69 -39 94 -60 122 -102 31 -46 32 -49
19 -88 -16 -44 -52 -64 -89 -48 -26 10 -67 6 -67 -8 0 -15 70 -39 116 -39 42
0 44 1 44 30 0 18 6 33 15 36 8 4 15 14 15 24 0 11 5 22 10 25 6 3 10 27 10
52 0 49 -31 118 -65 142 -53 37 -148 145 -169 192 -46 99 -7 106 83 16z m2957
-475 c18 -12 32 -44 26 -64 -2 -10 -35 -38 -73 -63 -72 -46 -94 -74 -84 -104
10 -32 58 -73 120 -102 175 -82 506 -80 673 5 44 22 112 86 112 104 0 24 -45
72 -96 102 -32 19 -62 39 -66 45 -23 32 8 85 49 85 57 0 183 -95 209 -157 57
-136 -46 -257 -281 -329 -84 -26 -102 -28 -270 -28 -167 0 -186 2 -268 27
-203 63 -297 146 -297 262 0 55 16 88 67 137 68 66 148 101 179 80z m-1076
-495 c0 -6 41 -50 91 -99 100 -96 126 -106 190 -72 24 12 34 13 45 3 22 -18
17 -32 -19 -54 -101 -62 -124 -74 -138 -75 -26 0 -67 38 -74 69 -4 20 -15 33
-34 39 -16 6 -42 32 -63 63 -20 30 -45 65 -57 78 -27 31 -27 50 1 60 26 10 58
3 58 -12z m-755 -133 c14 -15 25 -32 25 -39 0 -7 9 -20 20 -30 12 -10 30 -39
41 -64 11 -25 38 -67 59 -92 30 -35 41 -61 51 -110 11 -55 19 -70 59 -110 26
-26 54 -62 63 -81 9 -19 32 -52 50 -72 29 -32 35 -46 41 -104 3 -37 6 -80 6
-96 0 -28 -1 -27 -47 25 -27 29 -59 64 -72 78 -13 15 -35 51 -48 81 -14 30
-44 80 -69 112 -27 34 -44 67 -44 83 0 14 -7 57 -16 95 -13 57 -26 83 -75 147
-33 43 -66 92 -74 109 -7 17 -18 35 -24 38 -15 10 -14 43 2 49 22 9 28 7 52
-19z m-67 -1586 c5 -26 -35 -78 -54 -71 -10 4 -15 1 -14 -8 4 -27 0 -39 -14
-39 -8 0 -16 6 -19 14 -7 19 3 56 15 56 6 0 7 11 4 27 -9 32 7 44 49 41 19 -2
31 -9 33 -20z m-219 -265 c1 -7 -3 -13 -9 -13 -5 0 -10 15 -9 33 0 27 2 29 9
12 5 -11 9 -26 9 -32z m206 -421 c-4 -16 -10 -21 -16 -15 -6 6 -5 34 3 79 l13
69 3 -55 c2 -29 0 -65 -3 -78z"/>
<path d="M6280 7644 c0 -9 5 -14 12 -12 18 6 21 28 4 28 -9 0 -16 -7 -16 -16z"/>
<path d="M8586 7094 c-133 -32 -285 -143 -355 -258 -182 -303 -90 -642 304
-1121 59 -71 124 -151 144 -177 20 -26 39 -47 43 -47 17 -2 320 379 401 504
212 330 240 622 81 860 -74 113 -229 217 -362 244 -71 15 -184 13 -256 -5z
m241 -333 c118 -54 178 -189 141 -315 -26 -87 -149 -176 -244 -176 -62 0 -140
38 -187 90 -119 132 -73 332 93 404 49 21 146 20 197 -3z m-521 -597 c-7 -22
-17 -37 -22 -34 -13 7 -7 82 8 91 21 13 29 -16 14 -57z"/>
<path d="M5149 5826 c-2 -2 -2 -49 1 -103 5 -97 5 -98 30 -98 25 0 25 1 23 83
-1 64 -6 88 -19 103 -17 19 -27 23 -35 15z"/>
<path d="M4870 5634 c0 -8 5 -12 10 -9 6 3 10 10 10 16 0 5 -4 9 -10 9 -5 0
-10 -7 -10 -16z"/>
<path d="M6389 5428 c-10 -23 -13 -107 -4 -116 3 -3 17 0 32 7 26 12 26 14 10
25 -10 8 -17 26 -17 44 0 17 -4 34 -10 37 -5 3 -11 5 -11 3z"/>
<path d="M5920 5391 c0 -5 6 -14 14 -20 10 -8 16 -8 25 2 6 8 8 17 4 20 -9 10
-43 8 -43 -2z"/>
<path d="M6012 5363 c2 -10 12 -18 23 -18 11 0 21 8 23 18 3 13 -3 17 -23 17
-20 0 -26 -4 -23 -17z"/>
<path d="M5415 9060 c-3 -5 -3 -15 1 -22 4 -7 10 -42 13 -78 l6 -65 35 -3 c65
-5 90 37 71 122 -6 30 -11 32 -118 56 -1 0 -5 -4 -8 -10z"/>
<path d="M7320 8795 c0 -8 4 -15 10 -15 5 0 7 7 4 15 -4 8 -8 15 -10 15 -2 0
-4 -7 -4 -15z"/>
<path d="M1952 8549 c-23 -17 -42 -35 -42 -40 0 -6 -33 -42 -73 -82 -93 -92
-104 -111 -113 -186 l-7 -61 37 -15 c20 -8 36 -20 36 -25 0 -6 -18 -23 -39
-38 -22 -15 -41 -36 -43 -47 -2 -12 -12 -21 -25 -23 -13 -2 -30 -17 -40 -33
-22 -36 -26 -36 -40 1 -9 23 -8 32 3 41 20 17 17 33 -11 67 l-25 29 31 34 c43
47 76 134 71 187 -2 23 -7 42 -11 42 -4 0 -27 -23 -51 -52 -25 -29 -66 -76
-93 -105 -94 -105 -209 -257 -198 -261 6 -2 18 2 27 8 8 7 18 9 22 5 4 -4 2
-10 -5 -12 -7 -2 -9 -11 -6 -19 6 -16 -18 -19 -33 -4 -17 17 -48 -15 -134
-142 -267 -392 -523 -919 -624 -1283 -10 -33 -21 -73 -26 -90 -5 -16 -16 -61
-25 -100 -9 -38 -32 -133 -50 -210 -41 -171 -59 -278 -86 -505 -26 -219 -37
-729 -20 -895 6 -60 20 -197 31 -302 11 -106 26 -208 34 -226 19 -46 139 -167
165 -167 12 0 21 -4 21 -9 0 -12 164 -177 190 -191 17 -9 23 -6 40 22 11 18
20 39 20 46 0 6 6 12 14 12 15 0 46 -42 46 -63 0 -7 9 -32 20 -55 19 -40 40
-124 40 -162 0 -10 -25 -43 -55 -75 l-55 -59 0 -73 c0 -51 5 -81 16 -99 15
-23 15 -26 0 -43 -9 -9 -16 -27 -16 -39 0 -38 42 -106 90 -147 26 -22 64 -67
84 -100 20 -33 53 -80 71 -105 19 -25 43 -56 52 -70 10 -14 20 -27 23 -30 3
-3 17 -24 32 -47 25 -37 85 -93 102 -93 3 0 44 -24 89 -54 112 -72 150 -120
176 -221 11 -44 30 -107 41 -140 28 -81 70 -235 70 -261 0 -32 44 -163 79
-236 22 -47 31 -80 31 -116 0 -62 9 -74 173 -220 194 -172 345 -292 368 -292
5 0 9 6 9 14 0 7 7 19 15 26 32 27 12 60 -57 96 l-33 17 28 10 c22 7 32 5 47
-8 31 -28 33 0 5 92 -7 22 -5 23 37 17 41 -6 46 -4 71 26 38 44 35 81 -8 129
-19 21 -35 40 -35 43 0 2 25 4 56 4 47 -1 59 3 75 23 10 13 19 37 19 55 0 17
11 47 24 66 13 19 32 73 43 119 17 75 18 91 6 140 -7 31 -10 63 -7 71 9 26 97
83 149 97 124 33 134 42 141 132 3 31 10 79 15 107 8 36 8 79 0 152 -13 118
-13 118 71 242 56 83 58 87 58 152 0 96 -19 129 -94 169 -34 18 -83 52 -109
75 -50 45 -55 46 -199 59 -52 5 -71 11 -82 26 -7 11 -38 29 -67 40 -30 11 -79
32 -109 46 -30 14 -66 31 -80 37 -17 8 -26 22 -30 47 -8 46 -73 151 -130 210
-41 43 -52 48 -140 69 -105 25 -170 60 -214 116 -16 20 -43 42 -60 50 -41 18
-66 38 -66 54 0 7 -16 27 -35 45 -33 31 -36 33 -77 23 -24 -5 -75 -8 -114 -5
-57 3 -83 10 -129 36 -57 32 -85 35 -85 7 0 -8 -5 -18 -11 -22 -9 -5 -10 3 -5
29 4 19 3 38 -2 41 -5 3 -37 -6 -71 -19 -33 -14 -73 -25 -88 -25 -35 0 -79
-52 -97 -113 -15 -51 -35 -57 -58 -17 -26 46 -60 57 -105 36 -35 -17 -37 -17
-62 4 -14 11 -41 30 -59 41 -17 12 -32 29 -32 39 0 11 -4 22 -10 25 -12 7 -14
55 -2 55 13 0 29 -15 41 -37 20 -38 40 -24 55 39 7 29 1 36 -58 78 -19 14 -42
42 -50 62 -17 42 -41 58 -85 58 -37 0 -43 9 -31 46 17 57 39 170 39 204 0 104
168 108 300 8 31 -24 67 -44 81 -45 14 -1 42 -4 63 -8 37 -5 38 -4 35 21 -2
22 -11 29 -43 39 -22 6 -78 31 -125 55 -95 48 -165 70 -225 70 -36 0 -48 -7
-114 -70 -59 -56 -76 -68 -87 -59 -8 7 -13 23 -12 38 3 23 -1 26 -27 26 l-30
1 4 199 c4 195 10 242 34 257 20 13 93 9 122 -6 19 -10 35 -12 52 -5 52 19 92
-34 100 -135 10 -111 59 -169 97 -114 20 28 20 70 2 123 -8 22 -17 77 -21 123
l-7 82 60 58 c33 31 79 69 104 84 118 72 162 134 151 215 -4 34 -2 39 24 51
22 9 39 32 68 93 45 94 77 123 167 148 l63 18 5 55 c6 67 18 82 83 107 84 31
107 43 107 58 0 7 8 13 17 13 13 0 14 -3 5 -12 -19 -19 -14 -54 11 -82 l22
-26 60 53 c45 39 75 56 115 66 67 17 90 35 90 73 0 26 -2 28 -27 22 -16 -4
-33 -11 -40 -16 -16 -12 -103 49 -103 71 0 9 9 27 20 41 39 50 16 91 -56 100
-49 6 -49 6 -22 20 15 7 28 20 30 28 2 12 27 16 135 18 162 3 192 9 219 41 27
32 60 29 41 -3 -6 -12 -25 -46 -40 -75 -16 -30 -40 -66 -54 -81 -14 -14 -25
-30 -25 -35 0 -4 -3 -14 -6 -22 -8 -21 14 -28 104 -36 46 -4 86 -11 90 -16 10
-17 55 -9 79 16 27 26 33 60 13 68 -10 4 -10 7 0 18 33 35 -3 79 -65 79 -52 0
-65 15 -48 56 7 18 18 35 24 38 6 4 11 17 11 29 0 13 9 40 20 62 25 49 19 130
-11 148 -11 7 -19 17 -19 23 0 6 -25 46 -55 87 -53 73 -55 77 -46 116 9 40 -2
261 -14 281 -3 5 -12 10 -18 10 -16 0 -67 -55 -67 -72 0 -19 -62 -78 -81 -78
-26 0 -39 22 -39 65 0 30 8 50 31 78 35 42 29 63 -19 69 -22 2 -29 11 -40 48
-8 25 -15 51 -18 58 -2 7 -23 12 -56 12 -29 0 -70 5 -91 11 -49 13 -75 4 -84
-29 -3 -15 -14 -32 -23 -39 -11 -8 -15 -21 -12 -42 6 -46 -24 -122 -67 -167
l-38 -41 5 -75 c6 -106 -15 -146 -102 -187 -36 -17 -70 -39 -75 -49 -6 -11
-14 -46 -20 -80 -5 -33 -17 -74 -25 -91 -9 -16 -16 -39 -16 -50 0 -22 -45 -41
-60 -25 -16 16 -13 128 4 188 9 33 15 65 12 72 -3 7 -24 18 -48 25 -46 12
-118 73 -118 101 0 21 -63 58 -101 58 -32 0 -34 7 -19 62 8 27 7 46 -4 77 -12
35 -12 42 1 53 8 6 30 35 49 64 35 53 96 110 202 189 31 23 74 59 95 79 20 20
47 36 60 36 12 1 38 14 57 30 37 33 62 41 38 13 -18 -21 -13 -76 8 -94 8 -6
14 -18 14 -25 0 -21 21 -16 69 16 24 17 55 30 69 30 22 0 24 3 18 33 -3 17 -8
71 -12 118 -5 71 -4 87 8 92 8 3 21 1 28 -3 9 -5 29 -1 54 12 92 47 115 69
162 155 25 46 52 87 60 90 11 4 12 18 7 61 l-6 55 24 -16 c31 -23 65 -21 105
4 l34 21 0 -72 c0 -63 2 -72 20 -77 13 -3 20 -14 20 -29 0 -12 5 -26 11 -30
26 -15 -17 -99 -59 -115 -5 -2 -32 -31 -59 -65 -44 -52 -58 -62 -109 -78 -70
-21 -120 -57 -111 -80 5 -13 21 -16 76 -16 80 0 84 -3 96 -84 5 -38 15 -56 46
-87 21 -21 39 -42 39 -47 0 -13 47 -32 77 -32 25 0 26 0 8 20 -18 19 -17 20 3
20 33 0 36 19 8 49 -14 15 -26 30 -26 34 0 14 44 7 62 -10 14 -13 23 -15 36
-7 26 17 33 62 26 174 -5 89 -3 108 10 119 20 17 30 9 62 -44 23 -41 28 -44
47 -33 26 13 127 114 127 126 0 4 -20 28 -45 52 -40 39 -44 48 -39 77 5 25 2
34 -10 39 -25 9 -19 40 11 62 26 19 27 24 25 87 -4 83 -12 104 -55 148 -32 31
-34 37 -30 83 3 27 5 56 4 64 -5 66 -15 117 -23 128 -7 7 -37 12 -84 12 -40 0
-85 5 -99 12 -19 8 -31 8 -50 0 -14 -6 -24 -8 -24 -4 4 23 -3 42 -14 42 -7 0
-32 -14 -55 -31z m28 -124 c0 -8 -4 -15 -9 -15 -13 0 -22 16 -14 24 11 11 23
6 23 -9z m195 -5 c0 -8 -8 -16 -17 -18 -13 -2 -18 3 -18 18 0 15 5 20 18 18 9
-2 17 -10 17 -18z m-275 -100 c0 -5 -7 -10 -15 -10 -8 0 -15 5 -15 10 0 6 7
10 15 10 8 0 15 -4 15 -10z m-442 -222 c-6 -18 -28 -21 -28 -4 0 9 7 16 16 16
9 0 14 -5 12 -12z m-38 -53 c-14 -16 -40 -20 -40 -6 0 10 17 19 39 20 11 1 11
-2 1 -14z m38 -391 c-3 -19 -34 -41 -43 -32 -4 3 -2 16 5 27 13 25 43 28 38 5z
m472 -934 c0 -5 -5 -10 -11 -10 -5 0 -7 5 -4 10 3 6 8 10 11 10 2 0 4 -4 4
-10z m-280 -379 c0 -9 -24 -21 -41 -21 -5 0 -9 7 -9 15 0 9 9 15 25 15 14 0
25 -4 25 -9z m-825 -38 c28 -32 33 -78 9 -87 -9 -3 -31 -6 -50 -6 -29 0 -36 5
-48 35 -18 42 -30 43 -80 5 -40 -30 -66 -38 -66 -20 0 13 82 68 127 84 59 21
81 19 108 -11z m55 -143 c0 -5 -4 -10 -10 -10 -5 0 -10 5 -10 10 0 6 5 10 10
10 6 0 10 -4 10 -10z m108 -20 c33 -20 42 -39 20 -41 -7 -1 -22 -3 -33 -4 -63
-6 -62 -5 -32 -21 37 -20 36 -44 -3 -44 -22 0 -33 -7 -44 -27 -12 -24 -15 -26
-21 -10 -4 9 -4 37 -1 61 5 32 12 45 27 49 16 4 18 11 13 31 -5 22 -3 26 17
26 13 0 39 -9 57 -20z m-226 -47 c-22 -27 -52 -82 -67 -123 -30 -80 -41 -98
-51 -87 -4 3 6 46 21 94 30 93 80 163 118 163 15 0 11 -9 -21 -47z m391 -79
c14 -15 -8 -34 -38 -34 -19 0 -37 -5 -40 -10 -4 -7 -14 -6 -28 1 -20 11 -18
13 24 29 48 19 72 23 82 14z m-158 -84 c-3 -5 -10 -10 -16 -10 -5 0 -9 5 -9
10 0 6 7 10 16 10 8 0 12 -4 9 -10z m-545 -1435 c0 -17 -27 -51 -35 -43 -4 4
-4 26 0 49 7 40 9 41 21 24 8 -10 14 -24 14 -30z"/>
<path d="M1693 8434 l-28 -25 33 16 c17 8 32 20 32 25 0 15 -6 12 -37 -16z"/>
<path d="M1920 8066 c0 -10 9 -16 21 -16 24 0 21 23 -4 28 -10 2 -17 -3 -17
-12z"/>
<path d="M6570 7983 c-11 -30 -16 -33 -55 -33 -52 0 -60 -9 -40 -46 8 -16 15
-39 15 -50 0 -12 7 -27 15 -34 17 -14 19 -9 29 51 4 21 18 54 32 74 14 21 23
45 21 54 -3 11 -8 6 -17 -16z"/>
<path d="M1971 7951 c-12 -16 -24 -42 -27 -58 -4 -24 0 -31 27 -46 17 -10 33
-16 35 -15 1 2 4 34 6 72 3 79 -9 93 -41 47z"/>
<path d="M4070 7700 c-8 -5 -24 -10 -34 -10 -11 0 -27 -7 -37 -16 -16 -14 -18
-14 -29 5 -15 28 -64 28 -88 0 -9 -12 -27 -33 -39 -46 -34 -38 -16 -66 28 -43
16 9 19 7 19 -10 0 -14 -7 -20 -24 -20 -29 0 -40 -24 -21 -44 8 -8 15 -23 15
-34 0 -37 24 -45 121 -40 80 4 94 7 110 26 9 12 33 29 52 37 19 8 45 27 57 42
19 24 21 35 15 83 -4 30 -12 61 -17 68 -12 14 -106 16 -128 2z"/>
<path d="M1460 7399 c-11 -19 -10 -20 9 -10 27 15 36 31 17 31 -8 0 -20 -9
-26 -21z"/>
<path d="M1950 7190 c0 -5 5 -10 10 -10 6 0 10 5 10 10 0 6 -4 10 -10 10 -5 0
-10 -4 -10 -10z"/>
<path d="M4554 7028 c-35 -16 -53 -73 -51 -161 1 -44 -2 -79 -8 -81 -5 -2 -23
-1 -40 1 -23 4 -38 -2 -65 -27 -19 -17 -46 -37 -60 -43 -23 -11 -26 -20 -34
-99 -12 -114 -9 -121 51 -112 27 4 59 14 73 24 14 9 32 19 40 22 24 9 44 99
29 131 -11 24 -9 29 16 53 27 25 31 26 55 13 29 -17 38 -53 17 -77 -23 -28
-49 -111 -44 -140 3 -15 0 -30 -8 -37 -8 -5 -15 -28 -17 -50 -3 -39 -2 -40 27
-38 32 2 142 18 214 30 49 9 52 14 65 109 6 48 5 51 -19 62 -14 7 -31 24 -38
40 -25 54 -80 144 -93 149 -29 11 -37 93 -9 93 19 0 37 34 29 54 -4 10 -18 16
-36 16 -24 0 -32 6 -43 34 -18 42 -24 46 -51 34z"/>
<path d="M891 4874 c0 -11 3 -14 6 -6 3 7 2 16 -1 19 -3 4 -6 -2 -5 -13z"/>
<path d="M920 4873 c1 -16 28 -43 43 -43 14 0 15 4 5 25 -10 22 -48 36 -48 18z"/>
<path d="M1057 4502 c-15 -7 -27 -20 -27 -28 0 -7 -3 -14 -8 -14 -4 0 -12 -16
-18 -35 -9 -27 -8 -35 1 -35 14 0 25 22 25 50 0 20 33 37 38 20 3 -7 24 -20
48 -30 35 -16 58 -18 132 -13 62 4 91 2 96 -6 10 -16 26 -14 26 4 0 30 -29 72
-57 83 -43 17 -223 20 -256 4z"/>
<path d="M920 4471 c0 -10 7 -32 15 -47 10 -20 15 -23 15 -11 0 9 9 26 19 36
22 22 10 41 -26 41 -16 0 -23 -6 -23 -19z"/>
<path d="M1414 4416 c-8 -22 25 -66 50 -66 35 0 37 10 8 46 -29 36 -49 43 -58
20z"/>
<path d="M1690 4250 c0 -5 5 -10 10 -10 6 0 10 5 10 10 0 6 -4 10 -10 10 -5 0
-10 -4 -10 -10z"/>
<path d="M9400 4100 c0 -32 14 -40 24 -14 10 27 7 44 -9 44 -10 0 -15 -10 -15
-30z"/>
<path d="M7498 4023 c-22 -6 -31 -32 -14 -39 19 -7 56 13 56 31 0 15 -10 17
-42 8z"/>
<path d="M7183 2708 c-5 -7 -15 -26 -23 -42 -25 -48 -85 -100 -146 -125 -88
-36 -94 -43 -94 -120 -1 -42 -6 -73 -15 -85 -8 -11 -15 -25 -15 -32 0 -7 -14
-35 -31 -63 -24 -37 -32 -65 -36 -113 -5 -58 -3 -66 22 -96 62 -74 143 -21
227 148 93 189 160 361 165 425 7 88 -23 145 -54 103z"/>
</g>
</svg>
